# xmcd CD Database Entry
#
# Track frame offsets:
# 150
# 19146
# 34951
#
# Disc length: 700 seconds
#
# Revision: 1
# Processed by: cddbd v1.4b41PL1 Copyright (c) Steve Scherf et al.
# Submitted via: tcd 2.0b
#
DISCID=1e02ba03
DTITLE=The Beautiful South - The River
DYEAR=1900
DGENRE=
TTITLE0=The River
TTITLE1=Just Checkin'
TTITLE2=Valentine's Day Wank
EXTD=
EXTT0=
EXTT1=
EXTT2=
PLAYORDER=
